<svg width="55" height="60" viewBox="0 0 55 60" xmlns="http://www.w3.org/2000/svg"><title>Imported Layers Copy</title><g transform="rotate(19 22.25 35.477)" fill="#1973BC" fill-rule="evenodd"><path d="M29.04 35.016C39.126 24.223 44.75 10.97 45.426 3.713L43.12 8.456c-.95-.074-1.726.558-2.494 2.118C36.946 18.06 28.44 35.48 2.242 36.76c-2.13.104-2.37 3.943.657 3.874-2.412.745-1.255 3.99 1.12 3.554-2.048.375-1.762 4.197 1.93 3.703 1.27-.17 11.517-.626 23.09-12.874"/><path d="M27.635 30.52C25.818 28.5 17.97 16.986 19.25 1.67c.184-2.217-3.503-1.694-3.265 2.315-1.653-1.368-3.61 1.505-1.534 4.363-2.072-1.19-3.382 2.804-.66 4.748-2.135-1.19-3.154 2.696-.57 4.237-2.01-.274-2.315 3.467.502 4.38-2.69-.12-2.15 4.003.962 4.077-2.274-.172-2.215 3.823 1.325 4.37-2.484.2-1.755 3.953 1.86 3.722.14-.01 9.765-3.362 9.765-3.362M28.53 31.188c1.526 2.25 10.814 12.634 25.98 15.064 2.196.352.805 3.808-3.028 2.617.93 1.93-2.326 3.143-4.6.44.657 2.3-3.533 2.615-4.767-.494.645 2.357-3.37 2.416-4.247-.464-.216 2.018-3.92 1.417-4.13-1.537-.527 2.64-4.398 1.127-3.723-1.913-.38 2.25-4.24 1.235-3.923-2.335-.79 2.364-4.256.756-3.165-2.7.042-.134 5.604-8.68 5.604-8.68"/></g></svg>