<svg width="55" height="60" viewBox="0 0 519 511" version="1.1" xmlns="http://www.w3.org/2000/svg">
<path fill="#ffffff" d=" M 0.00 0.00 L 419.83 0.00 C 419.81 7.69 420.78 15.34 420.84 23.02 C 421.07 28.23 417.98 32.82 417.90 38.01 C 416.88 44.43 418.95 51.52 415.39 57.37 C 412.51 63.54 410.03 70.21 410.18 77.11 C 410.21 80.92 412.61 84.06 415.29 86.52 C 414.30 95.33 412.25 103.96 410.82 112.70 C 403.94 149.48 392.02 185.58 373.17 218.02 C 359.71 241.40 342.68 262.58 323.76 281.76 C 298.66 307.27 270.57 329.54 244.38 353.88 C 238.38 350.72 233.44 346.02 228.54 341.43 C 195.96 311.75 168.97 276.06 149.14 236.72 C 140.03 218.00 133.51 198.12 128.15 178.04 C 119.53 145.27 113.99 111.76 110.27 78.11 C 108.15 60.00 108.15 41.35 101.94 23.99 C 100.31 20.50 98.94 16.60 96.01 13.96 C 93.47 13.90 89.93 14.18 89.05 17.08 C 84.78 27.80 85.75 39.63 85.64 50.93 C 84.49 50.99 83.33 51.04 82.18 51.09 C 79.37 49.55 76.46 47.63 73.10 47.83 C 69.59 51.64 69.98 57.24 70.14 62.05 C 70.53 73.62 75.32 84.43 76.34 95.92 C 72.30 94.64 68.30 92.65 63.96 92.87 C 60.41 96.86 62.30 102.74 62.81 107.48 C 65.31 116.87 70.52 125.38 72.20 135.06 C 68.60 133.71 65.06 131.25 61.06 131.74 C 58.35 132.38 58.26 135.72 58.65 137.94 C 60.70 149.15 67.96 158.28 73.18 168.12 C 69.25 168.48 65.01 167.65 61.31 169.29 C 58.22 170.96 58.91 175.01 60.15 177.67 C 63.49 185.00 68.99 191.09 72.27 198.46 C 69.16 198.80 65.74 198.38 62.95 200.02 C 60.52 201.61 60.90 204.94 61.88 207.28 C 64.08 212.63 67.87 217.09 71.25 221.73 C 73.61 225.02 76.57 228.29 76.83 232.55 C 73.32 233.12 69.73 232.61 66.23 233.23 C 63.84 233.96 64.53 237.03 64.97 238.86 C 68.06 248.71 79.10 253.03 82.60 262.63 C 79.07 263.15 75.36 262.73 71.95 263.90 C 69.01 266.63 70.91 271.22 73.47 273.54 C 79.09 278.86 86.20 282.46 91.15 288.54 C 87.09 289.12 82.64 288.88 79.04 291.13 C 76.21 292.98 77.01 296.97 78.71 299.32 C 82.09 304.15 87.93 306.14 92.41 309.70 C 94.60 311.36 95.96 313.82 97.40 316.11 C 94.58 317.66 91.42 318.79 89.10 321.10 C 88.31 325.07 90.61 328.99 93.97 330.99 C 99.10 334.15 105.09 335.43 110.49 338.02 C 107.54 341.14 103.47 343.33 101.38 347.18 C 100.58 350.51 103.61 353.19 106.00 355.01 C 111.99 358.74 119.00 360.35 125.71 362.31 C 123.04 366.37 119.42 369.66 116.61 373.59 C 114.48 376.28 117.67 378.82 119.73 380.27 C 125.89 384.88 133.97 383.62 141.13 384.77 C 133.60 390.49 124.01 391.99 115.02 394.01 C 87.93 399.20 60.43 401.92 32.98 404.36 C 22.02 405.42 10.98 405.59 0.07 407.08 C 2.69 418.64 7.73 429.45 13.02 440.00 C 21.21 456.08 30.54 471.53 39.52 487.17 C 64.92 481.81 89.89 474.58 114.68 466.91 C 132.70 461.23 150.65 455.29 168.18 448.22 C 178.03 444.45 186.48 437.64 196.76 434.90 C 196.92 442.00 195.99 449.29 197.88 456.24 C 198.42 458.40 200.33 461.07 202.89 459.96 C 206.80 457.93 207.68 452.74 211.48 450.51 C 212.82 449.74 214.25 449.15 215.65 448.52 C 216.78 455.66 216.02 463.68 220.30 469.89 C 224.37 470.99 226.38 466.87 227.89 463.94 C 228.97 461.50 231.21 460.02 233.29 458.53 C 234.91 464.85 235.01 471.76 238.54 477.45 C 240.31 480.51 243.76 481.77 246.90 482.93 C 248.99 478.28 251.02 473.59 253.54 469.15 C 254.18 477.42 257.00 486.07 263.43 491.64 C 265.47 493.71 268.91 492.29 269.68 489.71 C 271.04 485.73 271.94 481.56 274.23 477.96 C 277.89 485.38 280.21 493.82 286.27 499.77 C 288.16 501.75 291.51 502.73 293.76 500.74 C 297.84 496.88 293.78 489.63 297.75 485.91 C 301.20 489.96 300.75 495.91 303.83 500.24 C 306.05 504.61 310.61 506.99 315.34 507.53 C 317.15 502.26 317.07 495.84 322.10 492.33 C 325.83 498.82 329.30 506.61 337.02 509.12 C 338.79 509.45 341.84 511.20 342.62 508.71 C 343.61 504.24 342.41 499.41 344.43 495.11 C 348.65 500.10 353.21 505.07 359.32 507.72 C 363.27 509.54 368.34 510.98 372.22 508.25 C 371.85 504.50 370.69 500.90 370.01 497.21 C 375.80 498.68 380.10 502.89 384.82 506.24 C 388.80 509.16 394.33 509.74 398.72 507.37 C 398.77 503.96 397.57 500.72 396.70 497.48 C 402.59 498.68 408.01 501.28 413.57 503.45 C 418.47 505.30 424.32 505.56 428.93 502.77 C 428.40 499.46 426.76 496.48 425.64 493.36 C 432.42 494.64 439.06 496.95 446.01 497.15 C 449.09 497.26 452.60 496.71 454.48 493.97 C 454.13 491.06 453.08 488.30 452.29 485.50 C 462.90 485.86 473.63 487.40 484.16 485.42 C 487.50 484.71 491.73 483.15 492.11 479.20 C 490.45 476.89 488.29 475.03 486.39 472.93 C 491.14 469.23 496.75 466.90 502.57 465.49 C 508.29 463.73 515.11 463.06 519.00 457.94 L 519.00 511.00 L 0.00 511.00 L 0.00 0.00 Z"/>
<path fill="#1b74bd" d=" M 419.83 0.00 L 422.24 0.00 C 425.84 2.45 424.76 7.36 425.49 11.08 C 428.28 36.97 427.60 63.08 425.91 89.01 C 423.23 127.42 416.15 165.84 401.51 201.59 C 395.50 216.70 387.81 231.05 380.50 245.56 C 369.04 267.01 354.74 286.79 339.93 306.02 C 320.23 331.40 299.09 355.61 277.59 379.46 C 308.39 400.78 343.72 414.36 379.18 425.73 C 424.73 439.84 471.58 449.94 519.00 455.08 L 519.00 457.94 C 515.11 463.06 508.29 463.73 502.57 465.49 C 496.75 466.90 491.14 469.23 486.39 472.93 C 488.29 475.03 490.45 476.89 492.11 479.20 C 491.73 483.15 487.50 484.71 484.16 485.42 C 473.63 487.40 462.90 485.86 452.29 485.50 C 453.08 488.30 454.13 491.06 454.48 493.97 C 452.60 496.71 449.09 497.26 446.01 497.15 C 439.06 496.95 432.42 494.64 425.64 493.36 C 426.76 496.48 428.40 499.46 428.93 502.77 C 424.32 505.56 418.47 505.30 413.57 503.45 C 408.01 501.28 402.59 498.68 396.70 497.48 C 397.57 500.72 398.77 503.96 398.72 507.37 C 394.33 509.74 388.80 509.16 384.82 506.24 C 380.10 502.89 375.80 498.68 370.01 497.21 C 370.69 500.90 371.85 504.50 372.22 508.25 C 368.34 510.98 363.27 509.54 359.32 507.72 C 353.21 505.07 348.65 500.10 344.43 495.11 C 342.41 499.41 343.61 504.24 342.62 508.71 C 341.84 511.20 338.79 509.45 337.02 509.12 C 329.30 506.61 325.83 498.82 322.10 492.33 C 317.07 495.84 317.15 502.26 315.34 507.53 C 310.61 506.99 306.05 504.61 303.83 500.24 C 300.75 495.91 301.20 489.96 297.75 485.91 C 293.78 489.63 297.84 496.88 293.76 500.74 C 291.51 502.73 288.16 501.75 286.27 499.77 C 280.21 493.82 277.89 485.38 274.23 477.96 C 271.94 481.56 271.04 485.73 269.68 489.71 C 268.91 492.29 265.47 493.71 263.43 491.64 C 257.00 486.07 254.18 477.42 253.54 469.15 C 251.02 473.59 248.99 478.28 246.90 482.93 C 243.76 481.77 240.31 480.51 238.54 477.45 C 235.01 471.76 234.91 464.85 233.29 458.53 C 231.21 460.02 228.97 461.50 227.89 463.94 C 226.38 466.87 224.37 470.99 220.30 469.89 C 216.02 463.68 216.78 455.66 215.65 448.52 C 214.25 449.15 212.82 449.74 211.48 450.51 C 207.68 452.74 206.80 457.93 202.89 459.96 C 200.33 461.07 198.42 458.40 197.88 456.24 C 195.99 449.29 196.92 442.00 196.76 434.90 C 186.48 437.64 178.03 444.45 168.18 448.22 C 150.65 455.29 132.70 461.23 114.68 466.91 C 89.89 474.58 64.92 481.81 39.52 487.17 C 30.54 471.53 21.21 456.08 13.02 440.00 C 7.73 429.45 2.69 418.64 0.07 407.08 C 10.98 405.59 22.02 405.42 32.98 404.36 C 60.43 401.92 87.93 399.20 115.02 394.01 C 124.01 391.99 133.60 390.49 141.13 384.77 C 133.97 383.62 125.89 384.88 119.73 380.27 C 117.67 378.82 114.48 376.28 116.61 373.59 C 119.42 369.66 123.04 366.37 125.71 362.31 C 119.00 360.35 111.99 358.74 106.00 355.01 C 103.61 353.19 100.58 350.51 101.38 347.18 C 103.47 343.33 107.54 341.14 110.49 338.02 C 105.09 335.43 99.10 334.15 93.97 330.99 C 90.61 328.99 88.31 325.07 89.10 321.10 C 91.42 318.79 94.58 317.66 97.40 316.11 C 95.96 313.82 94.60 311.36 92.41 309.70 C 87.93 306.14 82.09 304.15 78.71 299.32 C 77.01 296.97 76.21 292.98 79.04 291.13 C 82.64 288.88 87.09 289.12 91.15 288.54 C 86.20 282.46 79.09 278.86 73.47 273.54 C 70.91 271.22 69.01 266.63 71.95 263.90 C 75.36 262.73 79.07 263.15 82.60 262.63 C 79.10 253.03 68.06 248.71 64.97 238.86 C 64.53 237.03 63.84 233.96 66.23 233.23 C 69.73 232.61 73.32 233.12 76.83 232.55 C 76.57 228.29 73.61 225.02 71.25 221.73 C 67.87 217.09 64.08 212.63 61.88 207.28 C 60.90 204.94 60.52 201.61 62.95 200.02 C 65.74 198.38 69.16 198.80 72.27 198.46 C 68.99 191.09 63.49 185.00 60.15 177.67 C 58.91 175.01 58.22 170.96 61.31 169.29 C 65.01 167.65 69.25 168.48 73.18 168.12 C 67.96 158.28 60.70 149.15 58.65 137.94 C 58.26 135.72 58.35 132.38 61.06 131.74 C 65.06 131.25 68.60 133.71 72.20 135.06 C 70.52 125.38 65.31 116.87 62.81 107.48 C 62.30 102.74 60.41 96.86 63.96 92.87 C 68.30 92.65 72.30 94.64 76.34 95.92 C 75.32 84.43 70.53 73.62 70.14 62.05 C 69.98 57.24 69.59 51.64 73.10 47.83 C 76.46 47.63 79.37 49.55 82.18 51.09 C 83.33 51.04 84.49 50.99 85.64 50.93 C 85.75 39.63 84.78 27.80 89.05 17.08 C 89.93 14.18 93.47 13.90 96.01 13.96 C 98.94 16.60 100.31 20.50 101.94 23.99 C 108.15 41.35 108.15 60.00 110.27 78.11 C 113.99 111.76 119.53 145.27 128.15 178.04 C 133.51 198.12 140.03 218.00 149.14 236.72 C 168.97 276.06 195.96 311.75 228.54 341.43 C 233.44 346.02 238.38 350.72 244.38 353.88 C 270.57 329.54 298.66 307.27 323.76 281.76 C 342.68 262.58 359.71 241.40 373.17 218.02 C 392.02 185.58 403.94 149.48 410.82 112.70 C 412.25 103.96 414.30 95.33 415.29 86.52 C 412.61 84.06 410.21 80.92 410.18 77.11 C 410.03 70.21 412.51 63.54 415.39 57.37 C 418.95 51.52 416.88 44.43 417.90 38.01 C 417.98 32.82 421.07 28.23 420.84 23.02 C 420.78 15.34 419.81 7.69 419.83 0.00 Z"/>
<path fill="#ffffff" d=" M 422.24 0.00 L 519.00 0.00 L 519.00 455.08 C 471.58 449.94 424.73 439.84 379.18 425.73 C 343.72 414.36 308.39 400.78 277.59 379.46 C 299.09 355.61 320.23 331.40 339.93 306.02 C 354.74 286.79 369.04 267.01 380.50 245.56 C 387.81 231.05 395.50 216.70 401.51 201.59 C 416.15 165.84 423.23 127.42 425.91 89.01 C 427.60 63.08 428.28 36.97 425.49 11.08 C 424.76 7.36 425.84 2.45 422.24 0.00 Z"/>
</svg>